<?xml version="1.0" encoding="utf-8"?>
<!-- Generator: Adobe Illustrator 24.1.1, SVG Export Plug-In . SVG Version: 6.00 Build 0)  -->
<svg version="1.1" id="Capa_1" xmlns="http://www.w3.org/2000/svg" xmlns:xlink="http://www.w3.org/1999/xlink" x="0px" y="0px"
	 viewBox="0 0 98 98" style="enable-background:new 0 0 98 98;" xml:space="preserve">
<style type="text/css">
	.st0{fill:#1A7A1A;}
</style>
<g>
	<path class="st0" d="M97.1,21.4c-0.2-0.7-0.7-1.2-1.4-1.4c-0.7-0.2-1.4,0-1.9,0.5L78.5,35.7L62.3,19.5L77.5,4.2
		c0.5-0.5,0.7-1.3,0.5-1.9S77.3,1,76.6,0.9C74.4,0.3,72,0,69.7,0c-7.5,0-14.6,2.9-20,8.3c-7.5,7.5-10.2,18.8-6.8,28.9L3.7,76.4
		c-4.9,4.9-4.9,13,0,17.9c2.4,2.4,5.6,3.7,8.9,3.7c3.4,0,6.6-1.3,8.9-3.7l39.2-39.2l0,0c2.9,1,5.9,1.4,9,1.4c7.5,0,14.6-2.9,20-8.3
		C96.8,41.2,99.6,31.1,97.1,21.4z"/>
</g>
</svg>
