<?xml version="1.0" encoding="utf-8"?>
<!-- Generator: Adobe Illustrator 24.1.1, SVG Export Plug-In . SVG Version: 6.00 Build 0)  -->
<svg version="1.1" id="Capa_1" xmlns="http://www.w3.org/2000/svg" xmlns:xlink="http://www.w3.org/1999/xlink" x="0px" y="0px"
	 viewBox="0 0 96.3 96.3" style="enable-background:new 0 0 96.3 96.3;" xml:space="preserve">
<style type="text/css">
	.st0{fill:#7A7A7A;}
</style>
<g>
	<path class="st0" d="M82.2,14.1c-18.8-18.8-49.3-18.8-68.1,0c-18.8,18.8-18.8,49.3,0,68.1c18.8,18.8,49.3,18.8,68.1,0
		C100.9,63.4,100.9,32.9,82.2,14.1z M79,66.1c0.6,0.6,0.6,1.6,0,2.2L68.3,79c-0.6,0.6-1.6,0.6-2.2,0l-18-18l-18,18
		c-0.6,0.6-1.6,0.6-2.2,0L17.2,68.3c-0.6-0.6-0.6-1.6,0-2.2l18-18l-18-18c-0.6-0.6-0.6-1.6,0-2.2L28,17.2c0.6-0.6,1.6-0.6,2.2,0
		l18,18l18-18c0.6-0.6,1.6-0.6,2.2,0L79,28c0.6,0.6,0.6,1.6,0,2.2l-18,18L79,66.1z"/>
</g>
</svg>
