<?xml version="1.0" encoding="utf-8"?>
<!-- Generator: Adobe Illustrator 24.1.1, SVG Export Plug-In . SVG Version: 6.00 Build 0)  -->
<svg version="1.1" id="Capa_1" xmlns="http://www.w3.org/2000/svg" xmlns:xlink="http://www.w3.org/1999/xlink" x="0px" y="0px"
	 viewBox="0 0 92.8 92.8" style="enable-background:new 0 0 92.8 92.8;" xml:space="preserve">
<style type="text/css">
	.st0{fill:#8D8D09;}
</style>
<g>
	<path class="st0" d="M91.8,44.7L52.1,21.7c-0.6-0.4-1.4-0.4-2,0c-0.6,0.4-1,1-1,1.7v9.6h0C48.8,33.1,21,37,1.6,63.6l-1.2,1.7
		c-0.5,0.8-0.5,1.8,0.2,2.5c0.6,0.7,1.7,0.8,2.5,0.4l1.8-1.1c0.3-0.2,1.1-0.6,1.1-0.7C16.5,60.2,26.8,57,36.7,57
		c7.4,0,11.8,1.9,12.4,2.1l0,10.2c0,0.7,0.4,1.4,1,1.7c0.3,0.2,0.7,0.3,1,0.3c0.3,0,0.7-0.1,1-0.3l39.7-22.9c0.6-0.4,1-1,1-1.7
		S92.4,45,91.8,44.7z"/>
</g>
</svg>
