<?xml version="1.0" encoding="utf-8"?>
<!-- Generator: Adobe Illustrator 24.1.1, SVG Export Plug-In . SVG Version: 6.00 Build 0)  -->
<svg version="1.1" id="Capa_1" xmlns="http://www.w3.org/2000/svg" xmlns:xlink="http://www.w3.org/1999/xlink" x="0px" y="0px"
	 viewBox="0 0 512 512" style="enable-background:new 0 0 512 512;" xml:space="preserve">
<style type="text/css">
	.st0{fill:#7A6F5C;}
	.st1{fill:#7A7A7A;}
	.st2{fill:#7A4D4D;}
</style>
<g>
	<g>
		<path class="st0" d="M152.6,294.7L41.7,405.6c-19.6,19.6-19.6,51.4,0,71s51.4,19.6,71,0l110.9-110.9L152.6,294.7z M77.2,456.1
			c-8.3,0-15-6.7-15-15s6.7-15,15-15s15,6.7,15,15S85.5,456.1,77.2,456.1z"/>
		<path class="st1" d="M351.1,169.9c-6.8-20.5-8.7-43.4-5.6-68.2L174.3,273l110,110c5.9,5.9,15.4,5.9,21.2,0l58.1-58.1v-66.2
			c0-0.7,0-1.5,0.1-2.2C365,229.3,360.4,197.8,351.1,169.9L351.1,169.9z"/>
		<path class="st2" d="M452.6,459.1l-16.2-25.3c-2.8-4.3-7.5-6.9-12.6-6.9s-9.9,2.6-12.6,6.9l-16.2,25.3c-6.8,10.6-7.3,24-1.3,35
			c6,11,17.6,17.9,30.1,17.9c12.6,0,24.1-6.8,30.1-17.9C459.8,483.1,459.4,469.7,452.6,459.1z"/>
	</g>
	<path class="st2" d="M467.4,9.4c-4-10-16.9-12.6-24.5-5L386,61.2l-1.1,3.4c-12.4,37.1-14.2,69.3-5.3,95.9
		c10.4,31.2,15.5,66.8,14,97.5l0,93.4c0,16.6,13.5,30.1,30.1,30.1c16.6,0,30.1-13.5,30.1-30.1V221c17.3-31.1,27.8-66.1,30.5-101.5
		C487.1,82.3,481.3,44.2,467.4,9.4L467.4,9.4z"/>
</g>
</svg>
