<?xml version="1.0" encoding="utf-8"?>
<!-- Generator: Adobe Illustrator 24.1.1, SVG Export Plug-In . SVG Version: 6.00 Build 0)  -->
<svg version="1.1" id="Capa_1" xmlns="http://www.w3.org/2000/svg" xmlns:xlink="http://www.w3.org/1999/xlink" x="0px" y="0px"
	 viewBox="0 0 98 98" style="enable-background:new 0 0 98 98;" xml:space="preserve">
<style type="text/css">
	.st0{fill:#4747AF;}
</style>
<g>
	<g>
		<path class="st0" d="M97.2,9.9c-0.6-0.4-1.3-0.5-2-0.2l-10.8,4.9C74.1,5.3,60.8,0.1,47,0.1c-15.6,0-30.6,6.7-41.1,18.3
			c-0.4,0.4-0.5,0.9-0.5,1.5c0,0.5,0.3,1,0.7,1.4l11.3,9.8c0.8,0.7,2.1,0.6,2.8-0.2C27,23.4,36.8,19.1,47,19.1
			c6.1,0,12.2,1.6,17.6,4.6l-7.8,3.6c-0.7,0.3-1.1,0.9-1.2,1.6c-0.1,0.7,0.2,1.4,0.8,1.8l34.3,24.5c0.3,0.2,0.8,0.4,1.2,0.4
			c0.3,0,0.6-0.1,0.8-0.2c0.7-0.3,1.1-0.9,1.2-1.6l4.1-42C98.1,11,97.7,10.4,97.2,9.9z"/>
		<path class="st0" d="M80.6,66.9c-0.8-0.7-2.1-0.6-2.8,0.2C71,74.6,61.2,78.9,51,78.9c-6.1,0-12.2-1.6-17.6-4.6l7.8-3.6
			c0.7-0.3,1.1-0.9,1.2-1.6c0.1-0.7-0.2-1.4-0.8-1.8L7.2,42.8c-0.6-0.4-1.3-0.5-2-0.2c-0.7,0.3-1.1,0.9-1.2,1.6L0,86.2
			c-0.1,0.7,0.2,1.4,0.8,1.8c0.6,0.4,1.3,0.5,2,0.2l10.8-4.9C23.9,92.7,37.2,97.9,51,97.9c15.6,0,30.6-6.7,41.1-18.3
			c0.4-0.4,0.5-0.9,0.5-1.5c0-0.5-0.3-1-0.7-1.4L80.6,66.9z"/>
	</g>
</g>
</svg>
